<svg width="20" height="20" viewBox="0 0 20 20" fill="none" xmlns="http://www.w3.org/2000/svg">
<path d="M9.0575 14.0257C9.00917 13.9786 8.8025 13.8008 8.6325 13.6352C7.56333 12.6642 5.81333 10.1314 5.27917 8.80565C5.19333 8.60432 5.01167 8.09531 5 7.82335C5 7.56275 5.06 7.31434 5.18167 7.07729C5.35167 6.78178 5.61917 6.54473 5.935 6.41484C6.15417 6.33122 6.81 6.20133 6.82167 6.20133C7.53917 6.07144 8.705 6 9.99333 6C11.2208 6 12.3392 6.07144 13.0675 6.17779C13.0792 6.18997 13.8942 6.31986 14.1733 6.46193C14.6833 6.72252 15 7.23153 15 7.77626V7.82335C14.9875 8.17811 14.6708 8.92418 14.6592 8.92418C14.1242 10.1784 12.46 12.6529 11.3542 13.6473C11.3542 13.6473 11.07 13.9274 10.8925 14.0492C10.6375 14.2392 10.3217 14.3333 10.0058 14.3333C9.65333 14.3333 9.325 14.227 9.0575 14.0257" fill="#9E9E9E"/>
</svg>
