<svg width="30" height="30" viewBox="0 0 30 30" fill="none" xmlns="http://www.w3.org/2000/svg">
<path fill-rule="evenodd" clip-rule="evenodd" d="M21.3869 0.0150722C23.4847 -0.116042 25.5534 0.612371 27.1123 2.04006C28.54 3.59886 29.2684 5.66756 29.1518 7.77996V21.3867C29.2829 23.4991 28.54 25.5678 27.1268 27.1266C25.568 28.5543 23.4847 29.2827 21.3869 29.1516H7.78002C5.6676 29.2827 3.59889 28.5543 2.04008 27.1266C0.612376 25.5678 -0.116043 23.4991 0.0150724 21.3867V7.77996C-0.116043 5.66756 0.612376 3.59886 2.04008 2.04006C3.59889 0.612371 5.6676 -0.116042 7.78002 0.0150722H21.3869ZM13.097 21.6493L22.9015 11.8157C23.7902 10.9125 23.7902 9.45565 22.9015 8.56699L21.0076 6.67311C20.1044 5.76988 18.6475 5.76988 17.7443 6.67311L16.7682 7.66375C16.6225 7.80944 16.6225 8.0571 16.7682 8.20278C16.7682 8.20278 19.0846 10.5046 19.1283 10.5628C19.2885 10.7377 19.3905 10.9707 19.3905 11.233C19.3905 11.7574 18.968 12.1945 18.429 12.1945C18.1813 12.1945 17.9482 12.0925 17.788 11.9323L15.3551 9.51392C15.2385 9.39738 15.0346 9.39738 14.918 9.51392L7.96891 16.463C7.48815 16.9437 7.21135 17.5847 7.19679 18.2694L7.10938 21.7221C7.10938 21.9115 7.16765 22.0863 7.29876 22.2174C7.42988 22.3486 7.6047 22.4214 7.79409 22.4214H11.2177C11.9169 22.4214 12.5871 22.1446 13.097 21.6493Z" fill="url(#paint0_linear_901_2823)"/>
<defs>
<linearGradient id="paint0_linear_901_2823" x1="14.5833" y1="0" x2="14.5833" y2="29.1667" gradientUnits="userSpaceOnUse">
<stop stop-color="#1788EF"/>
<stop offset="1" stop-color="#075BA9"/>
</linearGradient>
</defs>
</svg>
