<svg width="25" height="25" viewBox="0 0 25 25" fill="none" xmlns="http://www.w3.org/2000/svg">
<g clip-path="url(#clip0_723_1371)">
<path d="M24.0078 12.9742C24.0078 11.9909 23.9295 11.2734 23.7598 10.5293H12.7295V14.9673H19.2041C19.0736 16.0702 18.3687 17.7311 16.8022 18.8472L16.7802 18.9958L20.2678 21.746L20.5095 21.7705C22.7285 19.6844 24.0078 16.6149 24.0078 12.9742Z" fill="#4285F4"/>
<path d="M12.7296 24.6678C15.9016 24.6678 18.5645 23.6048 20.5095 21.7711L16.8023 18.8478C15.8102 19.5521 14.4787 20.0437 12.7296 20.0437C9.6228 20.0437 6.98598 17.9576 6.04603 15.0742L5.90825 15.0861L2.2818 17.943L2.23438 18.0772C4.1663 21.9837 8.13462 24.6678 12.7296 24.6678Z" fill="#34A853"/>
<path d="M6.04621 15.0738C5.7982 14.3297 5.65466 13.5324 5.65466 12.7086C5.65466 11.8847 5.7982 11.0875 6.03316 10.3434L6.02659 10.1849L2.3547 7.28223L2.23457 7.34039C1.43833 8.96149 0.981445 10.7819 0.981445 12.7086C0.981445 14.6353 1.43833 16.4556 2.23457 18.0767L6.04621 15.0738Z" fill="#FBBC05"/>
<path d="M12.7295 5.37403C14.9356 5.37403 16.4237 6.34401 17.2722 7.15461L20.5878 3.85928C18.5515 1.9326 15.9015 0.75 12.7295 0.75C8.13462 0.75 4.1663 3.43406 2.23438 7.34056L6.03297 10.3436C6.98597 7.4602 9.62279 5.37403 12.7295 5.37403Z" fill="#EB4335"/>
</g>
<defs>
<clipPath id="clip0_723_1371">
<rect width="23.04" height="24" fill="white" transform="translate(0.980469 0.75)"/>
</clipPath>
</defs>
</svg>
