<svg width="24" height="25" viewBox="0 0 24 25" fill="none" xmlns="http://www.w3.org/2000/svg">
<g clip-path="url(#clip0_28_2930)">
<path d="M0.511719 12.9486C0.511157 14.9808 1.04216 16.9651 2.05184 18.7141C3.54318 20.8964 4.61327 21.8859 6.53066 23.0865C8.22212 24.0073 10.1173 24.4898 12.0432 24.4899H12.0482C18.4059 24.4899 23.5812 19.3165 23.5839 12.9577C23.5851 9.87643 22.3862 6.97899 20.208 4.79912C18.0302 2.61943 15.1338 1.4184 12.0478 1.41699C5.68935 1.41699 0.514344 6.59012 0.511719 12.9486Z" fill="url(#paint0_linear_28_2930)"/>
<path d="M9.06383 7.95156C8.84014 7.45441 8.60473 7.44438 8.39202 7.43566C8.21783 7.42816 8.0187 7.42872 7.81977 7.42872C7.62064 7.42872 7.29711 7.50363 7.02364 7.80222C6.74989 8.1011 5.97852 8.82335 5.97852 10.2923C5.97852 11.7614 7.04848 13.181 7.19764 13.3804C7.34698 13.5795 9.26323 16.6905 12.2981 17.8873C14.8204 18.8819 15.3336 18.6841 15.881 18.6342C16.4285 18.5845 17.6477 17.9121 17.8964 17.2149C18.1453 16.5178 18.1453 15.9202 18.0707 15.7953C17.996 15.6709 17.7969 15.5962 17.4983 15.447C17.1996 15.2976 15.7317 14.5753 15.458 14.4756C15.1843 14.3761 14.9853 14.3264 14.7861 14.6253C14.587 14.9238 14.0152 15.5962 13.841 15.7953C13.6669 15.9949 13.4926 16.0198 13.1941 15.8704C12.8953 15.7206 11.9337 15.4057 10.7929 14.3886C9.90523 13.5972 9.30598 12.6198 9.1318 12.3209C8.95761 12.0224 9.11314 11.8606 9.26286 11.7118C9.39702 11.578 9.56155 11.3631 9.71098 11.1888C9.85986 11.0145 9.90955 10.8901 10.0091 10.6909C10.1088 10.4916 10.0589 10.3173 9.98436 10.1679C9.90955 10.0186 9.32933 8.54191 9.06383 7.95156Z" fill="white"/>
</g>
<defs>
<linearGradient id="paint0_linear_28_2930" x1="1158.85" y1="2328.71" x2="1158.85" y2="1.41699" gradientUnits="userSpaceOnUse">
<stop stop-color="#1FAF38"/>
<stop offset="1" stop-color="#60D669"/>
</linearGradient>
<clipPath id="clip0_28_2930">
<rect width="24" height="24" fill="white" transform="translate(0 0.75)"/>
</clipPath>
</defs>
</svg>
