<svg width="26" height="26" viewBox="0 0 26 26" fill="none" xmlns="http://www.w3.org/2000/svg">
<path fill-rule="evenodd" clip-rule="evenodd" d="M13.001 8.93652C11.9235 8.93652 10.8902 9.36454 10.1284 10.1264C9.36649 10.8883 8.93848 11.9216 8.93848 12.999C8.93848 14.0765 9.36649 15.1098 10.1284 15.8716C10.8902 16.6335 11.9235 17.0615 13.001 17.0615C14.0784 17.0615 15.1117 16.6335 15.8736 15.8716C16.6355 15.1098 17.0635 14.0765 17.0635 12.999C17.0635 11.9216 16.6355 10.8883 15.8736 10.1264C15.1117 9.36454 14.0784 8.93652 13.001 8.93652ZM10.5635 12.999C10.5635 12.3526 10.8203 11.7326 11.2774 11.2755C11.7345 10.8183 12.3545 10.5615 13.001 10.5615C13.6474 10.5615 14.2674 10.8183 14.7245 11.2755C15.1817 11.7326 15.4385 12.3526 15.4385 12.999C15.4385 13.6455 15.1817 14.2655 14.7245 14.7226C14.2674 15.1797 13.6474 15.4365 13.001 15.4365C12.3545 15.4365 11.7345 15.1797 11.2774 14.7226C10.8203 14.2655 10.5635 13.6455 10.5635 12.999Z" fill="#212121"/>
<path fill-rule="evenodd" clip-rule="evenodd" d="M12.9732 1.35352C12.4912 1.35352 12.0892 1.35352 11.7599 1.37518C11.4233 1.3892 11.0913 1.45875 10.7773 1.58102C10.4158 1.73061 10.0872 1.94997 9.81044 2.22656C9.53366 2.50315 9.31408 2.83155 9.16424 3.19302C9.00716 3.57218 8.96491 3.97302 8.94758 4.40852C8.94584 4.56779 8.90368 4.72401 8.82504 4.86253C8.7464 5.00104 8.63387 5.11731 8.49799 5.20043C8.35812 5.27681 8.20112 5.31638 8.04175 5.31544C7.88238 5.31449 7.72587 5.27305 7.58691 5.19502C7.20124 4.99135 6.83291 4.82777 6.42558 4.7736C6.03768 4.72258 5.64354 4.74846 5.26565 4.84976C4.88775 4.95106 4.53352 5.12581 4.22316 5.36402C3.96075 5.57514 3.73492 5.82805 3.55474 6.1126C3.37058 6.38777 3.16908 6.73552 2.92858 7.1526L2.90149 7.20026C2.65991 7.61735 2.45949 7.9651 2.31433 8.26193C2.16266 8.57176 2.04349 8.87726 2.00016 9.21526C1.89681 9.9985 2.1088 10.7907 2.58949 11.4177C2.83974 11.7438 3.16583 11.981 3.53416 12.2128C3.67148 12.294 3.78589 12.4088 3.86663 12.5464C3.94736 12.684 3.99177 12.8399 3.99566 12.9993C3.99177 13.1588 3.94736 13.3147 3.86663 13.4523C3.78589 13.5899 3.67148 13.7047 3.53416 13.7858C3.16583 14.0177 2.84083 14.2549 2.58949 14.581C2.35129 14.8914 2.17654 15.2456 2.07524 15.6235C1.97393 16.0014 1.94805 16.3955 1.99908 16.7834C2.04349 17.1214 2.16158 17.4269 2.31324 17.7368C2.45949 18.0336 2.65991 18.3813 2.90149 18.7984L2.92858 18.8461C3.16908 19.2632 3.37058 19.6109 3.55474 19.8861C3.74649 20.171 3.95233 20.4278 4.22316 20.6336C4.53344 20.872 4.88764 21.0469 5.26553 21.1484C5.64343 21.2499 6.03761 21.276 6.42558 21.2251C6.83291 21.1709 7.20124 21.0084 7.58691 20.8037C7.7257 20.7257 7.88203 20.6844 8.04121 20.6834C8.20039 20.6825 8.3572 20.722 8.49691 20.7983C8.63354 20.8807 8.74678 20.9968 8.82586 21.1354C8.90493 21.274 8.94721 21.4306 8.94866 21.5902C8.96491 22.0257 9.00716 22.4265 9.16533 22.8057C9.31492 23.1672 9.53428 23.4958 9.81087 23.7726C10.0875 24.0493 10.4159 24.2689 10.7773 24.4188C11.0915 24.5488 11.4165 24.5997 11.7599 24.6224C12.0892 24.6452 12.4912 24.6452 12.9732 24.6452H13.0274C13.5095 24.6452 13.9114 24.6452 14.2407 24.6235C14.5852 24.5997 14.9092 24.5488 15.2233 24.4177C15.5849 24.2681 15.9134 24.0487 16.1902 23.7721C16.467 23.4955 16.6866 23.1671 16.8364 22.8057C16.9935 22.4265 17.0357 22.0257 17.0531 21.5902C17.0546 21.4307 17.0967 21.2743 17.1754 21.1356C17.254 20.9968 17.3666 20.8804 17.5027 20.7972C17.6426 20.721 17.7997 20.6816 17.959 20.6827C18.1184 20.6839 18.2749 20.7255 18.4137 20.8037C18.7994 21.0073 19.1677 21.1709 19.5751 21.224C20.3583 21.3274 21.1505 21.1154 21.7775 20.6347C22.0483 20.4267 22.2542 20.171 22.4459 19.8861C22.6301 19.6109 22.8316 19.2632 23.0721 18.8461L23.0992 18.7984C23.3407 18.3813 23.5412 18.0336 23.6863 17.7368C23.838 17.4269 23.9572 17.1203 24.0005 16.7834C24.1038 16.0002 23.8919 15.208 23.4112 14.581C23.1609 14.2549 22.8348 14.0177 22.4665 13.7858C22.3292 13.7047 22.2148 13.5899 22.134 13.4523C22.0533 13.3147 22.0089 13.1588 22.005 12.9993C22.005 12.6982 22.1697 12.3992 22.4665 12.2128C22.8348 11.981 23.1598 11.7438 23.4112 11.4177C23.6494 11.1073 23.8241 10.7531 23.9254 10.3752C24.0267 9.9973 24.0526 9.60316 24.0016 9.21526C23.95 8.88237 23.8439 8.56026 23.6874 8.26193C23.5025 7.90199 23.3063 7.54793 23.0992 7.20026L23.0721 7.1526C22.8742 6.79953 22.6654 6.45269 22.4459 6.1126C22.2657 5.82835 22.0399 5.57579 21.7775 5.3651C21.4672 5.1267 21.113 4.95176 20.7351 4.85027C20.3572 4.74878 19.963 4.72273 19.5751 4.7736C19.1677 4.82777 18.7994 4.99027 18.4137 5.19502C18.2749 5.27286 18.1186 5.31419 17.9594 5.31514C17.8003 5.31608 17.6435 5.27662 17.5037 5.20043C17.3675 5.11758 17.2545 5.00142 17.1755 4.86288C17.0964 4.72435 17.054 4.56799 17.052 4.40852C17.0357 3.97302 16.9935 3.57218 16.8353 3.19302C16.6857 2.83145 16.4664 2.5029 16.1898 2.22613C15.9132 1.94935 15.5848 1.72977 15.2233 1.57993C14.9092 1.44993 14.5842 1.39902 14.2407 1.37627C13.9114 1.35352 13.5095 1.35352 13.0274 1.35352H12.9732ZM11.3992 3.08143C11.4826 3.04677 11.6093 3.01535 11.8704 2.99693C12.138 2.97852 12.4847 2.97852 13.0003 2.97852C13.516 2.97852 13.8627 2.97852 14.1302 2.99693C14.3913 3.01535 14.5181 3.04677 14.6015 3.08143C14.9341 3.21902 15.1973 3.48227 15.3349 3.81485C15.3782 3.91885 15.414 4.08243 15.4281 4.46918C15.4606 5.32718 15.9037 6.15377 16.6902 6.60768C17.4767 7.06268 18.4137 7.03235 19.1732 6.63152C19.5155 6.4506 19.6747 6.39968 19.7874 6.3856C20.1434 6.33856 20.5034 6.43481 20.7884 6.65318C20.8599 6.70843 20.9509 6.80268 21.0972 7.01935C21.2477 7.24252 21.4211 7.5426 21.6789 7.98893C21.9367 8.43527 22.109 8.73643 22.2271 8.97693C22.343 9.21201 22.3787 9.33768 22.3896 9.4276C22.4366 9.78354 22.3404 10.1436 22.122 10.4286C22.0527 10.5185 21.9292 10.6312 21.602 10.837C20.874 11.2942 20.38 12.0915 20.38 12.9993C20.38 13.9072 20.874 14.7045 21.602 15.1617C21.9292 15.3675 22.0527 15.4802 22.122 15.5701C22.3408 15.855 22.4362 16.2147 22.3896 16.5711C22.3787 16.661 22.3419 16.7878 22.2271 17.0218C22.109 17.2633 21.9367 17.5634 21.6789 18.0098C21.4211 18.4561 21.2467 18.7562 21.0972 18.9793C20.9509 19.196 20.8599 19.2903 20.7884 19.3455C20.5034 19.5639 20.1434 19.6601 19.7874 19.6131C19.6747 19.599 19.5166 19.5481 19.1732 19.3672C18.4148 18.9663 17.4767 18.936 16.6902 19.3899C15.9037 19.8449 15.4606 20.6715 15.4281 21.5295C15.414 21.9163 15.3782 22.0798 15.3349 22.1838C15.2669 22.3483 15.167 22.4977 15.0412 22.6236C14.9154 22.7494 14.7659 22.8492 14.6015 22.9173C14.5181 22.9519 14.3913 22.9833 14.1302 23.0018C13.8627 23.0202 13.516 23.0202 13.0003 23.0202C12.4847 23.0202 12.138 23.0202 11.8704 23.0018C11.6093 22.9833 11.4826 22.9519 11.3992 22.9173C11.2347 22.8492 11.0853 22.7494 10.9594 22.6236C10.8336 22.4977 10.7338 22.3483 10.6657 22.1838C10.6224 22.0798 10.5867 21.9163 10.5726 21.5295C10.5401 20.6715 10.097 19.8449 9.31049 19.391C8.52399 18.936 7.58691 18.9663 6.82749 19.3672C6.48516 19.5481 6.32591 19.599 6.21324 19.6131C5.8573 19.6601 5.49724 19.5639 5.21224 19.3455C5.14074 19.2903 5.04974 19.196 4.90349 18.9793C4.69973 18.6622 4.50572 18.3388 4.32174 18.0098C4.06391 17.5634 3.89166 17.2623 3.77358 17.0218C3.65766 16.7867 3.62191 16.661 3.61108 16.5711C3.56404 16.2152 3.66029 15.8551 3.87866 15.5701C3.94799 15.4802 4.07149 15.3675 4.39866 15.1617C5.12666 14.7045 5.62066 13.9072 5.62066 12.9993C5.62066 12.0915 5.12666 11.2942 4.39866 10.837C4.07149 10.6312 3.94799 10.5185 3.87866 10.4286C3.66029 10.1436 3.56404 9.78354 3.61108 9.4276C3.62191 9.33768 3.65874 9.21093 3.77358 8.97693C3.89166 8.73535 4.06391 8.43527 4.32174 7.98893C4.57958 7.5426 4.75399 7.24252 4.90349 7.01935C5.04974 6.80268 5.14074 6.70843 5.21224 6.65318C5.49724 6.43481 5.8573 6.33856 6.21324 6.3856C6.32591 6.39968 6.48408 6.4506 6.82749 6.63152C7.58583 7.03235 8.52399 7.06268 9.31049 6.60768C10.097 6.15377 10.5401 5.32718 10.5726 4.46918C10.5867 4.08243 10.6224 3.91885 10.6657 3.81485C10.8033 3.48227 11.0666 3.21902 11.3992 3.08143Z" fill="#212121"/>
</svg>
