<svg width="25" height="24" viewBox="0 0 25 24" fill="none" xmlns="http://www.w3.org/2000/svg">
<g clip-path="url(#clip0_140_2079)">
<path d="M20.2185 15.3418H8.85007C7.96902 15.3418 7.52849 15.3418 7.16659 15.4384C6.68468 15.5677 6.24527 15.8215 5.89255 16.1744C5.53983 16.5272 5.28622 16.9668 5.15723 17.4487" stroke="#9E9E9E" stroke-width="1.42105"/>
<path d="M8.9467 6.57812H16.5256M8.9467 9.72812H13.6835M10.8414 20.0781C8.16228 20.0781 6.82175 20.0781 5.98996 19.287C5.15723 18.4968 5.15723 17.2233 5.15723 14.6781V7.47812C5.15723 4.93292 5.15723 3.65942 5.98996 2.86922C6.82175 2.07812 8.16228 2.07812 10.8414 2.07812H14.6309C17.3101 2.07812 18.6506 2.07812 19.4824 2.86922C20.3151 3.65942 20.3151 4.93292 20.3151 7.47812M14.6309 20.0781C17.3101 20.0781 18.6506 20.0781 19.4824 19.287C20.3151 18.4968 20.3151 17.2233 20.3151 14.6781V11.0781" stroke="#9E9E9E" stroke-width="1.42105" stroke-linecap="round"/>
</g>
<defs>
<clipPath id="clip0_140_2079">
<rect width="22.7368" height="22.7368" fill="white" transform="translate(1.36816 1.13086)"/>
</clipPath>
</defs>
</svg>
