<svg width="25" height="24" viewBox="0 0 25 24" fill="none" xmlns="http://www.w3.org/2000/svg">
<g clip-path="url(#clip0_403_1454)">
<path d="M7.16757 15.4399L6.98427 14.7534L6.98355 14.7536L7.16757 15.4399ZM8.94768 5.86955C8.55526 5.86955 8.23715 6.18767 8.23715 6.58008C8.23715 6.97249 8.55526 7.2906 8.94768 7.2906V5.86955ZM16.5266 7.2906C16.919 7.2906 17.2372 6.97249 17.2372 6.58008C17.2372 6.18767 16.919 5.86955 16.5266 5.86955V7.2906ZM8.94768 9.01955C8.55526 9.01955 8.23715 9.33767 8.23715 9.73008C8.23715 10.1225 8.55526 10.4406 8.94768 10.4406V9.01955ZM13.6845 10.4406C14.0769 10.4406 14.395 10.1225 14.395 9.73008C14.395 9.33767 14.0769 9.01955 13.6845 9.01955V10.4406ZM10.8424 20.7906C11.2348 20.7906 11.5529 20.4725 11.5529 20.0801C11.5529 19.6877 11.2348 19.3696 10.8424 19.3696V20.7906ZM5.99094 19.289L6.48061 18.7741L6.48002 18.7736L5.99094 19.289ZM5.99094 2.87118L6.48002 3.38659L6.48061 3.38603L5.99094 2.87118ZM19.4834 2.87118L18.9937 3.38603L18.9943 3.38659L19.4834 2.87118ZM19.6056 7.48008C19.6056 7.87249 19.9237 8.1906 20.3161 8.1906C20.7085 8.1906 21.0266 7.87249 21.0266 7.48008H19.6056ZM14.6319 19.3696C14.2395 19.3696 13.9214 19.6877 13.9214 20.0801C13.9214 20.4725 14.2395 20.7906 14.6319 20.7906V19.3696ZM19.4834 19.289L18.9943 18.7736L18.9937 18.7741L19.4834 19.289ZM21.0266 11.0801C21.0266 10.6877 20.7085 10.3696 20.3161 10.3696C19.9237 10.3696 19.6056 10.6877 19.6056 11.0801H21.0266ZM20.2195 14.6327H8.85105V16.0538H20.2195V14.6327ZM8.85105 14.6327C8.01552 14.6327 7.45893 14.6266 6.98427 14.7534L7.35087 16.1263C7.6 16.0598 7.92447 16.0538 8.85105 16.0538V14.6327ZM6.98355 14.7536C6.38115 14.9151 5.83189 15.2324 5.39099 15.6735L6.39607 16.6781C6.66061 16.4134 6.99016 16.2231 7.3516 16.1261L6.98355 14.7536ZM5.39099 15.6735C4.95009 16.1146 4.63308 16.664 4.47184 17.2665L5.84457 17.6339C5.94132 17.2724 6.13153 16.9428 6.39607 16.6781L5.39099 15.6735ZM8.94768 7.2906H16.5266V5.86955H8.94768V7.2906ZM8.94768 10.4406H13.6845V9.01955H8.94768V10.4406ZM10.8424 19.3696C9.48372 19.3696 8.53243 19.3682 7.81396 19.2764C7.11228 19.1867 6.74124 19.022 6.48061 18.7741L5.50127 19.8038C6.07243 20.347 6.78755 20.5779 7.63387 20.686C8.46339 20.792 9.52194 20.7906 10.8424 20.7906V19.3696ZM6.48002 18.7736C6.22422 18.5308 6.05778 18.1927 5.96581 17.5431C5.8704 16.8691 5.86873 15.9738 5.86873 14.6801H4.44768C4.44768 15.9316 4.44601 16.9456 4.55878 17.7422C4.675 18.5632 4.92492 19.2569 5.50186 19.8044L6.48002 18.7736ZM5.86873 14.6801V7.48008H4.44768V14.6801H5.86873ZM5.86873 7.48008C5.86873 6.18636 5.8704 5.29105 5.96581 4.61709C6.05778 3.96742 6.22422 3.62932 6.48002 3.38659L5.50186 2.35577C4.92492 2.90323 4.675 3.59699 4.55878 4.41791C4.44601 5.21455 4.44768 6.22859 4.44768 7.48008H5.86873ZM6.48061 3.38603C6.74124 3.13815 7.11228 2.97341 7.81396 2.88376C8.53243 2.79197 9.48372 2.7906 10.8424 2.7906V1.36955C9.52194 1.36955 8.46339 1.36819 7.63387 1.47417C6.78755 1.5823 6.07243 1.81311 5.50127 2.35633L6.48061 3.38603ZM10.8424 2.7906H14.6319V1.36955H10.8424V2.7906ZM14.6319 2.7906C15.9906 2.7906 16.9419 2.79197 17.6603 2.88376C18.362 2.97341 18.7331 3.13815 18.9937 3.38603L19.973 2.35633C19.4019 1.81311 18.6868 1.5823 17.8404 1.47417C17.0109 1.36819 15.9524 1.36955 14.6319 1.36955V2.7906ZM18.9943 3.38659C19.2501 3.62932 19.4165 3.96742 19.5085 4.61709C19.6039 5.29105 19.6056 6.18636 19.6056 7.48008H21.0266C21.0266 6.22859 21.0283 5.21455 20.9155 4.41791C20.7993 3.59699 20.5494 2.90323 19.9724 2.35577L18.9943 3.38659ZM14.6319 20.7906C15.9524 20.7906 17.0109 20.792 17.8404 20.686C18.6868 20.5779 19.4019 20.347 19.973 19.8038L18.9937 18.7741C18.7331 19.022 18.362 19.1867 17.6603 19.2764C16.9419 19.3682 15.9906 19.3696 14.6319 19.3696V20.7906ZM19.9724 19.8044C20.5494 19.2569 20.7993 18.5632 20.9155 17.7422C21.0283 16.9456 21.0266 15.9316 21.0266 14.6801H19.6056C19.6056 15.9738 19.6039 16.8691 19.5085 17.5431C19.4165 18.1927 19.2501 18.5308 18.9943 18.7736L19.9724 19.8044ZM21.0266 14.6801V11.0801H19.6056V14.6801H21.0266Z" fill="url(#paint0_linear_403_1454)"/>
</g>
<defs>
<linearGradient id="paint0_linear_403_1454" x1="12.7372" y1="2.08008" x2="12.7372" y2="20.0801" gradientUnits="userSpaceOnUse">
<stop stop-color="#1788EF"/>
<stop offset="1" stop-color="#075BA9"/>
</linearGradient>
<clipPath id="clip0_403_1454">
<rect width="22.7368" height="22.7368" fill="white" transform="translate(1.36816 1.13086)"/>
</clipPath>
</defs>
</svg>
